# xmcd
#
# Track frame offsets:
#	150
#	9043
#	23110
#	37712
#	53121
#	66379
#	80103
#	92714
#	102979
#	117047
#	130322
#	150019
#	158219
#
# Disc length: 2123 seconds
#
# Revision: 1
# Processed by: cddbd v1.4PL0 Copyright (c) Steve Scherf et al.
# Submitted via: audiograbber 1.81.03
#
DISCID=9008490d
DTITLE=The Legendardy Stardust Cowboy And The Altamont Boys - Tokyo
DYEAR=2002
DGENRE=Rock-a-Billy
TTITLE0=Play My Guitar
TTITLE1=Hot Rodding In San Jose
TTITLE2=Gears In The Sun
TTITLE3=As I Gaze (Mixxed Emotions)
TTITLE4=Down At The Wrecking Yard
TTITLE5=Winds Of Time
TTITLE6=Slide Rule
TTITLE7=All Night Cowboy
TTITLE8=Space Oddity
TTITLE9=Tokyo
TTITLE10=Color Me Blue Paint Me Pink
TTITLE11=Stemmons Freeway South
TTITLE12=Constructive Criticism
EXTD=
EXTT0=
EXTT1=
EXTT2=
EXTT3=
EXTT4=
EXTT5=
EXTT6=
EXTT7=
EXTT8=
EXTT9=
EXTT10=
EXTT11=
EXTT12=
PLAYORDER=
